/* XPM */
static char * floor_xpm[] = {
"16 16 2 1",
" 	c #C0D470",
".	c #EAE178",
"                ",
"                ",
"                ",
"    ..          ",
"   ....         ",
"    ..    ..    ",
"         ....   ",
"          ..    ",
"                ",
"                ",
"      ..        ",
"     ....       ",
"      ..        ",
"                ",
"                ",
"                "};
