/* XPM */
static char * wall_xpm[] = {
"16 16 5 1",
" 	c None",
".	c #B78A62",
"+	c #E8CFA6",
"@	c #AA7959",
"#	c #C49A6C",
"                ",
"      ....      ",
"     .++++.     ",
"     .++++.     ",
"     @#++#@     ",
"     @####@     ",
"     @####@     ",
"     @####@     ",
"     @####@     ",
"     @.##.@     ",
"     @....@     ",
"      ....      ",
"                ",
"                ",
"                ",
"                "};
